<?xml version="1.0" encoding="UTF-8"?>
<svg width="29px" height="18px" viewBox="0 0 29 18" version="1.1" xmlns="http://www.w3.org/2000/svg" xmlns:xlink="http://www.w3.org/1999/xlink">
    <title>A4BACD4C-AC90-446A-9507-A52ACC51A426</title>
    <g id="Tucny_webdesign_2021" stroke="none" stroke-width="1" fill="none" fill-rule="evenodd">
        <g id="Tucny_mainpage(HD)" transform="translate(-1027.000000, -1663.000000)" fill="#FFFFFF">
            <g id="content" transform="translate(35.000000, 160.000000)">
                <g id="about" transform="translate(535.000000, 961.000000)">
                    <path d="M465.56321,542.0001 C466.420379,542.0001 467.201806,542.075545 467.907738,542.227028 C468.613572,542.378264 469.218664,542.626445 469.722867,542.970634 C470.226921,543.315119 470.617807,543.773215 470.895081,544.344776 C471.172503,544.916287 471.311067,545.622023 471.311067,546.462475 C471.311067,547.369989 471.105096,548.126268 470.6934,548.731261 C470.281409,549.336206 469.672422,549.832025 468.865797,550.218572 C469.974992,550.538007 470.802673,551.096993 471.348937,551.894989 C471.894708,552.693477 472.16863,553.655924 472.16863,554.78154 C472.16863,555.689203 471.991998,556.475019 471.639032,557.139037 C471.286214,557.803105 470.811105,558.34503 470.21479,558.764565 C469.618032,559.185087 468.937347,559.495696 468.172833,559.69782 C467.407728,559.899304 466.622454,560.0001 465.815583,560.0001 L465.815583,560.0001 L457.092613,560.0001 L457.092613,542.0001 Z M479.342606,546.286243 C480.45195,546.286243 481.418144,546.500449 482.241781,546.928959 C483.065172,547.35742 483.741863,547.933715 484.27146,548.655772 C484.800565,549.378667 485.182624,550.202304 485.418527,551.126338 C485.653838,552.050914 485.737419,553.017109 485.670603,554.025513 L485.670603,554.025513 L476.267392,554.025513 C476.317689,555.184808 476.611186,556.025556 477.149462,556.546278 C477.687196,557.067788 478.460289,557.327705 479.468694,557.327705 C480.191145,557.327705 480.813299,557.147425 481.33402,556.785928 C481.854988,556.424973 482.174472,556.042322 482.292128,555.638763 L482.292128,555.638763 L485.443379,555.638763 C484.939473,557.201667 484.165837,558.31964 483.124197,558.991696 C482.081669,559.663949 480.821139,560.0001 479.34236,560.0001 C478.31719,560.0001 477.392613,559.836191 476.569223,559.508324 C475.745586,559.180753 475.047937,558.714273 474.476968,558.109329 C473.905358,557.504385 473.464373,556.782131 473.15332,555.941432 C472.842219,555.101276 472.687087,554.1767 472.687087,553.168345 C472.687087,552.193718 472.84641,551.286203 473.166141,550.445801 C473.485034,549.605644 473.938643,548.878705 474.527561,548.265033 C475.115345,547.651854 475.817431,547.168609 476.63239,546.815495 C477.447398,546.46248 478.351017,546.286243 479.342606,546.286243 Z M465.361431,551.983008 L461.050637,551.983008 L461.050637,556.924141 L465.285838,556.924437 C465.672236,556.924437 466.042116,556.886369 466.394935,556.810923 C466.74795,556.735182 467.058756,556.609144 467.327894,556.432513 C467.596489,556.256424 467.810892,556.016774 467.970758,555.714056 C468.13013,555.411781 468.210112,555.025234 468.210112,554.554316 C468.210112,553.630332 467.949357,552.970702 467.428635,552.575526 C466.907421,552.180596 466.218501,551.983008 465.361431,551.983008 L465.361431,551.983008 Z M479.242012,548.983343 C478.670452,548.983343 478.195885,549.080189 477.817721,549.273339 C477.439557,549.466983 477.136888,549.705942 476.909911,549.991895 C476.683229,550.277848 476.523117,550.58032 476.431153,550.89941 C476.33835,551.218746 476.283862,551.504502 476.267096,551.756578 L476.267096,551.756578 L482.090595,551.756578 C481.922593,550.848817 481.624411,550.159848 481.195654,549.689177 C480.767193,549.218802 480.1157,548.983343 479.242012,548.983343 Z M464.756585,545.075906 L461.050637,545.075906 L461.050637,549.286204 L465.059008,549.286204 C465.76499,549.286056 466.344638,549.118055 466.798592,548.781706 C467.2523,548.445752 467.47908,547.89934 467.47908,547.143061 C467.47908,546.723082 467.403635,546.378351 467.2523,546.109508 C467.101064,545.840716 466.899433,545.630307 466.647356,545.479219 C466.395132,545.327884 466.105234,545.223197 465.777564,545.163975 C465.449746,545.105394 465.109453,545.075906 464.756585,545.075906 L464.756585,545.075906 Z M482.931905,542.91402 L482.931905,544.931421 L475.65586,544.931421 L475.65586,542.91402 L482.931905,542.91402 Z" id="Be"></path>
                </g>
            </g>
        </g>
    </g>
</svg>