<?xml version="1.0" encoding="UTF-8"?>
<svg width="10px" height="18px" viewBox="0 0 10 18" version="1.1" xmlns="http://www.w3.org/2000/svg" xmlns:xlink="http://www.w3.org/1999/xlink">
    <title>3EA46F23-65F7-4CCF-A9DA-922F279F3D67</title>
    <g id="Tucny_webdesign_2021" stroke="none" stroke-width="1" fill="none" fill-rule="evenodd">
        <g id="Tucny_mainpage(HD)" transform="translate(-940.000000, -1663.000000)" fill="#FFFFFF">
            <g id="content" transform="translate(35.000000, 160.000000)">
                <g id="about" transform="translate(535.000000, 961.000000)">
                    <path d="M370.290323,551.586742 L372.263413,551.586742 L372.263413,559.709677 C372.263413,559.869994 372.393361,560 372.553735,560 L375.899181,560 C376.059497,560 376.189503,559.869994 376.189503,559.709677 L376.189503,551.625006 L378.457735,551.625006 C378.605219,551.625006 378.729303,551.514335 378.746142,551.367839 L379.090639,548.377458 C379.100103,548.295181 379.073974,548.212787 379.018987,548.151006 C378.963884,548.089226 378.885032,548.053865 378.80229,548.053865 L376.189619,548.053865 L376.189619,546.179368 C376.189619,545.614226 376.493877,545.327735 377.094032,545.327735 L378.80229,545.327735 C378.962606,545.327735 379.092613,545.197671 379.092613,545.037413 L379.092613,542.292413 C379.092613,542.132039 378.962606,542.00209 378.80229,542.00209 L376.448065,542.00209 C376.431458,542.001277 376.394587,542 376.340239,542 C375.931755,542 374.511903,542.080129 373.390329,543.111935 C372.147632,544.255342 372.320374,545.624387 372.361658,545.861755 L372.361658,548.053806 L370.290323,548.053806 C370.129948,548.053806 370,548.183813 370,548.344129 L370,551.296361 C370,551.456794 370.129948,551.586742 370.290323,551.586742" id="face"></path>
                </g>
            </g>
        </g>
    </g>
</svg>