<?xml version="1.0" encoding="UTF-8"?>
<svg width="19px" height="18px" viewBox="0 0 19 18" version="1.1" xmlns="http://www.w3.org/2000/svg" xmlns:xlink="http://www.w3.org/1999/xlink">
    <title>6A262DB9-4A16-430C-9C1A-AA3B5552073F</title>
    <g id="Tucny_webdesign_2021" stroke="none" stroke-width="1" fill="none" fill-rule="evenodd">
        <g id="Tucny_mainpage(HD)" transform="translate(-979.000000, -1663.000000)" fill="#FFFFFF">
            <g id="content" transform="translate(35.000000, 160.000000)">
                <g id="about" transform="translate(535.000000, 961.000000)">
                    <path d="M421.842613,542 C424.730113,542 427.092613,544.3625 427.092613,547.25 L427.092613,547.25 L427.092613,554.75 C427.092613,557.6375 424.730113,560 421.842613,560 L421.842613,560 L414.342613,560 C411.455113,560 409.092613,557.6375 409.092613,554.75 L409.092613,554.75 L409.092613,547.25 C409.092613,544.3625 411.455113,542 414.342613,542 L414.342613,542 Z M421.842613,543.5 L414.342613,543.5 C413.348863,543.5 412.401988,543.889063 411.694175,544.601562 C410.986363,545.314062 410.592613,546.25625 410.592613,547.25 L410.592613,547.25 L410.592613,554.75 C410.592613,555.74375 410.981675,556.690578 411.694175,557.398438 C412.406675,558.10625 413.348863,558.5 414.342613,558.5 L414.342613,558.5 L421.842613,558.5 C422.836363,558.5 423.783238,558.110937 424.49105,557.398438 C425.198863,556.685938 425.592613,555.74375 425.592613,554.75 L425.592613,554.75 L425.592613,547.25 C425.592613,546.25625 425.20355,545.309375 424.49105,544.601562 C423.77855,543.89375 422.836363,543.5 421.842613,543.5 L421.842613,543.5 Z M418.092613,546.5 C420.576988,546.5 422.592613,548.515625 422.592613,551 C422.592613,553.484375 420.576988,555.5 418.092613,555.5 C415.608238,555.5 413.592613,553.484375 413.592613,551 C413.592613,548.515625 415.608238,546.5 418.092613,546.5 Z M418.092613,548 C416.437925,548 415.092613,549.345312 415.092613,551 C415.092613,552.654688 416.437925,554 418.092613,554 C419.7473,554 421.092613,552.654688 421.092613,551 C421.092613,549.345312 419.7473,548 418.092613,548 Z M422.967613,545 C423.586363,545 424.092613,545.501562 424.092613,546.125 C424.092613,546.748438 423.586363,547.25 422.967613,547.25 C422.344175,547.25 421.842613,546.748438 421.842613,546.125 C421.842613,545.501562 422.344175,545 422.967613,545 Z" id="insta"></path>
                </g>
            </g>
        </g>
    </g>
</svg>